<svg width="33" height="33" viewBox="0 0 33 33" fill="none" xmlns="http://www.w3.org/2000/svg">
<path d="M16.6953 0.4104C7.86891 0.4104 0.705444 7.57387 0.705444 16.4003C0.705444 25.2267 7.86891 32.3902 16.6953 32.3902C25.5217 32.3902 32.6852 25.2267 32.6852 16.4003C32.6852 7.57387 25.5217 0.4104 16.6953 0.4104ZM22.4677 10.548C24.1786 10.548 25.5537 11.9231 25.5537 13.634C25.5537 15.345 24.1786 16.7201 22.4677 16.7201C20.7568 16.7201 19.3816 15.345 19.3816 13.634C19.3656 11.9231 20.7568 10.548 22.4677 10.548ZM12.8737 8.02158C14.9524 8.02158 16.6474 9.71651 16.6474 11.7952C16.6474 13.8739 14.9524 15.5688 12.8737 15.5688C10.7951 15.5688 9.10013 13.8739 9.10013 11.7952C9.10013 9.70052 10.7791 8.02158 12.8737 8.02158ZM12.8737 22.6203V28.6166C9.03617 27.4173 5.9981 24.4592 4.65495 20.6856C6.33388 18.8947 10.5232 17.9833 12.8737 17.9833C13.7212 17.9833 14.7925 18.1112 15.9118 18.3351C13.2895 19.7262 12.8737 21.565 12.8737 22.6203ZM16.6953 29.1922C16.2636 29.1922 15.8479 29.1762 15.4321 29.1282V22.6203C15.4321 20.3498 20.1332 19.2145 22.4677 19.2145C24.1786 19.2145 27.1367 19.8381 28.6078 21.0533C26.737 25.8023 22.1159 29.1922 16.6953 29.1922Z" fill="white"/>
</svg>
