<svg width="19" height="21" viewBox="0 0 19 21" fill="none" xmlns="http://www.w3.org/2000/svg">
<path d="M17.341 2.01782L15.841 0.517822L14.341 2.01782L12.841 0.517822L11.341 2.01782L9.841 0.517822L8.341 2.01782L6.841 0.517822L5.341 2.01782L3.841 0.517822V14.5178H0.841003V17.5178C0.841003 19.1778 2.181 20.5178 3.841 20.5178H15.841C17.501 20.5178 18.841 19.1778 18.841 17.5178V0.517822L17.341 2.01782ZM16.841 17.5178C16.841 18.0678 16.391 18.5178 15.841 18.5178C15.291 18.5178 14.841 18.0678 14.841 17.5178V14.5178H5.841V3.51782H16.841V17.5178Z" fill="#E3261A"/>
<path d="M12.841 5.51782H6.841V7.51782H12.841V5.51782Z" fill="#E3261A"/>
<path d="M15.841 5.51782H13.841V7.51782H15.841V5.51782Z" fill="#E3261A"/>
<path d="M12.841 8.51782H6.841V10.5178H12.841V8.51782Z" fill="#E3261A"/>
<path d="M15.841 8.51782H13.841V10.5178H15.841V8.51782Z" fill="#E3261A"/>
</svg>
