<svg width="24" height="22" viewBox="0 0 24 22" fill="none" xmlns="http://www.w3.org/2000/svg">
<path d="M19.7968 6.56731H4.06616C2.20096 6.56731 0.695312 8.07295 0.695312 9.93816V16.6799H5.18978V21.1743H18.6732V16.6799H23.1677V9.93816C23.1677 8.07295 21.662 6.56731 19.7968 6.56731ZM16.426 18.9271H7.43702V13.309H16.426V18.9271ZM19.7968 11.0618C19.1788 11.0618 18.6732 10.5561 18.6732 9.93816C18.6732 9.32017 19.1788 8.81454 19.7968 8.81454C20.4148 8.81454 20.9204 9.32017 20.9204 9.93816C20.9204 10.5561 20.4148 11.0618 19.7968 11.0618ZM18.6732 0.949219H5.18978V5.44369H18.6732V0.949219Z" fill="#E3261A"/>
</svg>
