<svg width="29" height="21" viewBox="0 0 29 21" fill="none" xmlns="http://www.w3.org/2000/svg">
<path fill-rule="evenodd" clip-rule="evenodd" d="M20.0676 11.96C21.7993 13.1355 23.0128 14.7283 23.0128 16.8519V20.6441H28.0691V16.8519C28.0691 14.0962 23.5564 12.4656 20.0676 11.96Z" fill="#3B0400"/>
<path d="M10.3721 10.5315C13.1646 10.5315 15.4284 8.26773 15.4284 5.47523C15.4284 2.68272 13.1646 0.418945 10.3721 0.418945C7.57963 0.418945 5.31586 2.68272 5.31586 5.47523C5.31586 8.26773 7.57963 10.5315 10.3721 10.5315Z" fill="#3B0400"/>
<path fill-rule="evenodd" clip-rule="evenodd" d="M17.9565 10.5315C20.7501 10.5315 23.0128 8.26882 23.0128 5.47523C23.0128 2.68163 20.7501 0.418945 17.9565 0.418945C17.3624 0.418945 16.8062 0.545352 16.2753 0.722322C17.3245 2.02431 17.9565 3.68025 17.9565 5.47523C17.9565 7.27021 17.3245 8.92614 16.2753 10.2281C16.8062 10.4051 17.3624 10.5315 17.9565 10.5315Z" fill="#3B0400"/>
<path fill-rule="evenodd" clip-rule="evenodd" d="M10.3722 11.7957C6.99714 11.7957 0.259644 13.4895 0.259644 16.8519V20.6441H20.4848V16.8519C20.4848 13.4895 13.7473 11.7957 10.3722 11.7957Z" fill="#3B0400"/>
</svg>
