<svg width="22" height="22" viewBox="0 0 22 22" fill="none" xmlns="http://www.w3.org/2000/svg">
<path d="M21.1677 11.355C21.1677 17.1095 16.5027 21.7745 10.7482 21.7745C4.99369 21.7745 0.328735 17.1095 0.328735 11.355C0.328735 5.6005 4.99369 0.935547 10.7482 0.935547C16.5027 0.935547 21.1677 5.6005 21.1677 11.355Z" fill="#E3261A"/>
<path d="M7.85864 11.5369H6.45825V14.6599H4.70044V6.12866H7.87036C8.87817 6.12866 9.65552 6.35327 10.2024 6.80249C10.7493 7.25171 11.0227 7.88647 11.0227 8.70679C11.0227 9.28882 10.8958 9.77515 10.6418 10.1658C10.3918 10.5525 10.011 10.8611 9.49927 11.0916L11.345 14.5779V14.6599H9.45825L7.85864 11.5369ZM6.45825 10.113H7.87622C8.31763 10.113 8.65942 10.0017 8.90161 9.77905C9.1438 9.55249 9.26489 9.24194 9.26489 8.84741C9.26489 8.44507 9.14966 8.12866 8.91919 7.89819C8.69263 7.66772 8.34302 7.55249 7.87036 7.55249H6.45825V10.113Z" fill="white"/>
<path d="M17.9602 11.5486C17.9602 12.5251 17.7375 13.3083 17.2922 13.8982C16.8508 14.4841 16.2532 14.7771 15.4993 14.7771C14.8586 14.7771 14.3411 14.5544 13.9465 14.1091V17.0974H12.2532V8.32007H13.8235L13.8821 8.94116C14.2922 8.44897 14.8274 8.20288 15.4875 8.20288C16.2688 8.20288 16.8762 8.49194 17.3098 9.07007C17.7434 9.64819 17.9602 10.4451 17.9602 11.4607V11.5486ZM16.2668 11.4255C16.2668 10.8357 16.1614 10.3806 15.9504 10.0603C15.7434 9.73999 15.4407 9.57983 15.0422 9.57983C14.511 9.57983 14.1458 9.78296 13.9465 10.1892V12.7849C14.1536 13.2029 14.5227 13.4119 15.054 13.4119C15.8625 13.4119 16.2668 12.7498 16.2668 11.4255Z" fill="white"/>
</svg>
