<svg width="21" height="21" viewBox="0 0 21 21" fill="none" xmlns="http://www.w3.org/2000/svg">
<path d="M6.01282 16.0864C4.91282 16.0864 4.02282 16.9864 4.02282 18.0864C4.02282 19.1864 4.91282 20.0864 6.01282 20.0864C7.11282 20.0864 8.01282 19.1864 8.01282 18.0864C8.01282 16.9864 7.11282 16.0864 6.01282 16.0864ZM0.0128174 0.0864258V2.08643H2.01282L5.61282 9.67643L4.26282 12.1264C4.10282 12.4064 4.01282 12.7364 4.01282 13.0864C4.01282 14.1864 4.91282 15.0864 6.01282 15.0864H18.0128V13.0864H6.43282C6.29282 13.0864 6.18282 12.9764 6.18282 12.8364L6.21282 12.7164L7.11282 11.0864H14.5628C15.3128 11.0864 15.9728 10.6764 16.3128 10.0564L19.8928 3.56643C19.9728 3.42643 20.0128 3.25643 20.0128 3.08643C20.0128 2.53643 19.5628 2.08643 19.0128 2.08643H4.22282L3.28282 0.0864258H0.0128174ZM16.0128 16.0864C14.9128 16.0864 14.0228 16.9864 14.0228 18.0864C14.0228 19.1864 14.9128 20.0864 16.0128 20.0864C17.1128 20.0864 18.0128 19.1864 18.0128 18.0864C18.0128 16.9864 17.1128 16.0864 16.0128 16.0864Z" fill="#E3261A"/>
</svg>
