<svg width="17" height="21" viewBox="0 0 17 21" fill="none" xmlns="http://www.w3.org/2000/svg">
<path d="M14.1429 4.87061H12.1429C12.1429 2.66061 10.3529 0.870605 8.14288 0.870605C5.93288 0.870605 4.14288 2.66061 4.14288 4.87061H2.14288C1.04288 4.87061 0.142883 5.77061 0.142883 6.87061V18.8706C0.142883 19.9706 1.04288 20.8706 2.14288 20.8706H14.1429C15.2429 20.8706 16.1429 19.9706 16.1429 18.8706V6.87061C16.1429 5.77061 15.2429 4.87061 14.1429 4.87061ZM6.14288 8.87061C6.14288 9.42061 5.69288 9.87061 5.14288 9.87061C4.59288 9.87061 4.14288 9.42061 4.14288 8.87061V6.87061H6.14288V8.87061ZM8.14288 2.87061C9.24288 2.87061 10.1429 3.77061 10.1429 4.87061H6.14288C6.14288 3.77061 7.04288 2.87061 8.14288 2.87061ZM12.1429 8.87061C12.1429 9.42061 11.6929 9.87061 11.1429 9.87061C10.5929 9.87061 10.1429 9.42061 10.1429 8.87061V6.87061H12.1429V8.87061Z" fill="#E3261A"/>
</svg>
