<svg width="20" height="21" viewBox="0 0 20 21" fill="none" xmlns="http://www.w3.org/2000/svg">
<path fill-rule="evenodd" clip-rule="evenodd" d="M14.6176 16.1245C13.078 17.3561 11.125 18.0925 9 18.0925C4.02944 18.0925 0 14.0631 0 9.09253C0 4.12197 4.02944 0.0925293 9 0.0925293C13.9706 0.0925293 18 4.12197 18 9.09253C18 11.2176 17.2635 13.1706 16.0318 14.7103L19.7071 18.3856C20.0977 18.7761 20.0977 19.4093 19.7071 19.7998C19.3166 20.1903 18.6834 20.1903 18.2929 19.7998L14.6176 16.1245ZM2 9.09253C2 5.22654 5.13401 2.09253 9 2.09253C12.866 2.09253 16 5.22654 16 9.09253C16 10.9788 15.2539 12.6908 14.0408 13.9496C14.0068 13.9757 13.9741 14.0044 13.9429 14.0356C13.9118 14.0667 13.8831 14.0994 13.8569 14.1334C12.5982 15.3465 10.8862 16.0925 9 16.0925C5.13401 16.0925 2 12.9585 2 9.09253Z" fill="#E3261A"/>
</svg>
